<?xml version="1.0" encoding="utf-8"?>
<!-- Generator: Adobe Illustrator 28.0.0, SVG Export Plug-In . SVG Version: 6.00 Build 0)  -->
<svg version="1.1" id="Layer_1" xmlns="http://www.w3.org/2000/svg" xmlns:xlink="http://www.w3.org/1999/xlink" x="0px" y="0px"
	 viewBox="0 0 100 100" style="enable-background:new 0 0 100 100;" xml:space="preserve">
<style type="text/css">
	.st0{fill-rule:evenodd;clip-rule:evenodd;fill:#1C274C;}
	.st1{fill:#1C274C;}
</style>
<path class="st0" d="M14.3,88.9c0-1.7,1.4-3.1,3.1-3.1h65.4c1.7,0,3.1,1.4,3.1,3.1c0,1.7-1.4,3.1-3.1,3.1H17.3
	C15.6,92,14.3,90.6,14.3,88.9z"/>
<path class="st1" d="M48.1,60L48.1,60l24.2-24.2c-3.3-1.4-7.2-3.6-10.9-7.3c-3.7-3.7-5.9-7.6-7.3-10.9L29.9,41.8l0,0
	c-1.9,1.9-2.8,2.8-3.6,3.9c-1,1.2-1.8,2.6-2.4,4c-0.6,1.2-1,2.5-1.8,5L17.5,68c-0.4,1.2-0.1,2.6,0.8,3.5c0.9,0.9,2.3,1.3,3.5,0.8
	l13.4-4.5c2.5-0.8,3.8-1.3,5-1.8c1.4-0.7,2.7-1.5,4-2.4C45.2,62.8,46.2,61.9,48.1,60z"/>
<path class="st1" d="M79,29.1c5-5,5-13.2,0-18.2c-5-5-13.2-5-18.2,0l-2.9,2.9c0,0.1,0.1,0.2,0.1,0.4c1.1,3.1,3.1,7.1,6.8,10.9
	c3.8,3.8,7.8,5.8,10.9,6.8c0.1,0,0.2,0.1,0.4,0.1L79,29.1z"/>
</svg>
