<?xml version="1.0" encoding="utf-8"?>
<!-- Generator: Adobe Illustrator 28.0.0, SVG Export Plug-In . SVG Version: 6.00 Build 0)  -->
<svg version="1.1" id="Layer_1" xmlns="http://www.w3.org/2000/svg" xmlns:xlink="http://www.w3.org/1999/xlink" x="0px" y="0px"
	 viewBox="0 0 100 100" style="enable-background:new 0 0 100 100;" xml:space="preserve">
<style type="text/css">
	.st0{fill-rule:evenodd;clip-rule:evenodd;fill:#1C274C;}
</style>
<path class="st0" d="M39.8,91.9h20.5c14.4,0,21.6,0,26.7-3.4c2.2-1.5,4.2-3.4,5.6-5.5c3.4-5.1,3.4-12.1,3.4-26.2
	c0-14.1,0-21.2-3.4-26.2c-1.5-2.2-3.4-4.1-5.6-5.5c-3.3-2.2-7.5-3-13.8-3.2c-3,0-5.6-2.3-6.2-5.2C66,12.2,62.1,9,57.6,9h-15
	c-4.6,0-8.5,3.2-9.4,7.5c-0.6,2.9-3.2,5.2-6.2,5.2c-6.4,0.3-10.5,1.1-13.8,3.2c-2.2,1.5-4.2,3.4-5.6,5.5C4,35.6,4,42.6,4,56.7
	C4,70.8,4,77.9,7.4,83c1.5,2.2,3.4,4.1,5.6,5.5C18.3,91.9,25.4,91.9,39.8,91.9z M50.1,37.9c-10.6,0-19.2,8.4-19.2,18.8
	c0,10.4,8.6,18.8,19.2,18.8c10.6,0,19.2-8.4,19.2-18.8C69.2,46.3,60.7,37.9,50.1,37.9z M50.1,45.4c-6.4,0-11.5,5.1-11.5,11.3
	C38.5,63,43.7,68,50.1,68S61.6,63,61.6,56.7C61.6,50.5,56.4,45.4,50.1,45.4z M71.8,41.7c0-2.1,1.7-3.8,3.8-3.8h5.1
	c2.1,0,3.8,1.7,3.8,3.8c0,2.1-1.7,3.8-3.8,3.8h-5.1C73.5,45.4,71.8,43.7,71.8,41.7z"/>
</svg>
