<?xml version="1.0" encoding="utf-8"?>
<!-- Generator: Adobe Illustrator 28.0.0, SVG Export Plug-In . SVG Version: 6.00 Build 0)  -->
<svg version="1.1" id="Layer_1" xmlns="http://www.w3.org/2000/svg" xmlns:xlink="http://www.w3.org/1999/xlink" x="0px" y="0px"
	 viewBox="0 0 100 100" style="enable-background:new 0 0 100 100;" xml:space="preserve">
<style type="text/css">
	.st0{fill-rule:evenodd;clip-rule:evenodd;fill:#1C274C;}
</style>
<path class="st0" d="M50,95.4c25.1,0,45.5-20.4,45.5-45.5C95.5,24.8,75.1,4.5,50,4.5C24.9,4.5,4.5,24.8,4.5,49.9
	C4.5,75.1,24.9,95.4,50,95.4z M34.5,34.4c-2.7,2.7-2.7,7-2.7,15.5s0,12.9,2.7,15.5c2.7,2.7,7,2.7,15.5,2.7s12.9,0,15.5-2.7
	c2.7-2.7,2.7-7,2.7-15.5s0-12.9-2.7-15.5c-2.7-2.7-7-2.7-15.5-2.7S37.2,31.8,34.5,34.4z"/>
</svg>
