<?xml version="1.0" encoding="utf-8"?>
<!-- Generator: Adobe Illustrator 28.0.0, SVG Export Plug-In . SVG Version: 6.00 Build 0)  -->
<svg version="1.1" id="Layer_1" xmlns="http://www.w3.org/2000/svg" xmlns:xlink="http://www.w3.org/1999/xlink" x="0px" y="0px"
	 viewBox="0 0 100 100" style="enable-background:new 0 0 100 100;" xml:space="preserve">
<style type="text/css">
	.st0{fill-rule:evenodd;clip-rule:evenodd;fill:#1C274C;}
</style>
<path class="st0" d="M17.9,17.8c-7.6,0-13.8,6.2-13.8,13.8v36.7c0,7.6,6.2,13.8,13.8,13.8h45.9c7.6,0,13.8-6.2,13.8-13.8V61
	l10.5,10.5c1.8,1.8,4.7,1.8,6.5,0c0.9-0.9,1.3-2,1.3-3.2V31.6c0-2.5-2.1-4.6-4.6-4.6c-1.2,0-2.4,0.5-3.2,1.3L77.5,38.9v-7.3
	c0-7.6-6.2-13.8-13.8-13.8H17.9z"/>
</svg>
